<?xml version="1.0" encoding="UTF-8"?>
<svg id="_レイヤー_1" data-name="レイヤー 1" xmlns="http://www.w3.org/2000/svg" viewBox="0 0 450 100">
  <defs>
    <style>
      .cls-1 {
        font-family: ShipporiMinchoB1-Bold, 'Shippori Mincho B1';
        font-size: 18px;
        glyph-orientation-vertical: 0deg;
        text-orientation: upright;
        writing-mode: tb;
      }

      .cls-1, .cls-2, .cls-3, .cls-4 {
        fill: #231815;
      }

      .cls-1, .cls-4 {
        font-weight: 700;
      }

      .cls-2 {
        font-family: HiraKakuStd-W8-83pv-RKSJ-H, 'Hiragino Kaku Gothic Std';
        font-size: 30px;
      }

      .cls-3 {
        font-family: AB-tsubaki-83pv-RKSJ-H, AB-tsubaki;
        font-size: 37px;
        letter-spacing: -.3em;
      }

      .cls-5 {
        fill: #040000;
      }

      .cls-4 {
        font-family: ShipporiMinchoB1-ExtraBold, 'Shippori Mincho B1';
        font-size: 90px;
      }
    </style>
  </defs>
  <text class="cls-4" transform="translate(27.8 85.13)"><tspan x="0" y="0">寿司</tspan></text>
  <text class="cls-3" transform="translate(287.88 45.66)"><tspan x="0" y="0">ってことに</tspan></text>
  <text class="cls-2" transform="translate(206.24 85.8) scale(.99 1)"><tspan x="0" y="0">なりませんかね？</tspan></text>
  <text class="cls-1" transform="translate(15.6 4.03)"><tspan x="0" y="0">これはもう</tspan></text>
  <g>
    <path class="cls-5" d="M231.39,31.62c.33.28.7.5,1.1.65.19-.35.41-.7.65-1.09.52-.87,3.03-4.64,9.05-6.91,1.74-.66,3.92-1.5,6.1-2.34,6.44-2.49,9.18-3.53,10.26-3.78,1.6-.37,3.27-.56,4.95-.56.12,0,.22,0,.34,0l-.07-.07-6.03-5.24c-.96-.84-1.93-1.02-3.6-1.21,0,0-2.64-.48-5.91.28-1.29.3-10.1,3.81-15.15,5.71-5.05,1.91-6.81,5.11-6.81,5.11-.87,1.36-1.05,1.87-1.09,2.79-.04.92.16,1.4.89,2.04l5.33,4.62Z"/>
    <path class="cls-5" d="M258.83,19.91c-1.4.33-10.99,4.14-16.49,6.21-5.5,2.07-7.41,5.56-7.41,5.56-.95,1.48-1.14,2.03-1.18,3.04-.04,1,.17,1.52.97,2.21l5.79,5.03c1.43,1.24,3.66,1.31,5.19.17,0,0,.03-.05.08-.12.44.36.86.71,1.24,1.03.52.43.98.79,1.34,1.08.18.14.34.26.48.36.14.1.24.18.38.25.33.18.79.46,1.37.7.58.24,1.29.43,2.12.43.65,0,1.36-.12,2.09-.4h0s12.01-4.92,12.01-4.92c.79-.3,1.43-.58,1.96-.9.4-.24.75-.5,1.04-.81.44-.46.69-1.02.81-1.58.12-.57.14-1.16.14-1.84,0-.43,0-.9-.01-1.42l-.02-4.24c1.46-.26,3.74-.09,3.74-.09.77-.04,1.45-.49,1.72-1.14.27-.66.08-1.4-.48-1.89l-6.56-5.7c-1.05-.91-2.1-1.12-3.92-1.32,0,0-2.88-.52-6.42.31ZM268.69,30.41l.02,3.58c0,.54,0,1.01,0,1.41,0,.58-.02,1.03-.08,1.37-.05.25-.11.43-.19.58-.12.22-.28.4-.66.65-.38.24-.96.52-1.79.83h-.01s-11.99,4.92-11.99,4.92c-.5.19-.91.25-1.27.25-.47,0-.87-.11-1.27-.27-.4-.16-.76-.38-1.13-.58-.01,0-.1-.07-.22-.15-.44-.33-1.33-1.04-2.37-1.9-.22-.18-.46-.39-.7-.58,1.29-1.35,3.51-3.23,6.75-4.45,4.45-1.68,11.61-4.44,14.9-5.65Z"/>
    <path class="cls-5" d="M278.05,25.93c.65.99.79,2.2.33,3.31-.07.16-.15.32-.24.47,3.38,2.04,5.36,4.44,5.36,6.99,0,7.09-15.3,13.08-33.41,13.08s-33.41-5.99-33.41-13.08c0-3.09,2.91-5.98,7.7-8.25-.97-.86-1.44-1.73-1.53-2.87-6.16,2.88-9.88,6.78-9.88,11.12,0,9.1,16.3,16.22,37.12,16.22s37.12-7.12,37.12-16.22c0-4.17-3.44-7.93-9.17-10.78Z"/>
  </g>
</svg>