<?xml version="1.0" encoding="UTF-8"?>
<svg id="_レイヤー_1" xmlns="http://www.w3.org/2000/svg" version="1.1" viewBox="0 0 450 100">
  <!-- Generator: Adobe Illustrator 30.1.0, SVG Export Plug-In . SVG Version: 2.1.1 Build 136)  -->
  <defs>
    <style>
      .st0 {
        fill: #021431;
      }
    </style>
  </defs>
  <g>
    <path class="st0" d="M98.45,43.64l1.8-2.52c.36-.48.75-.99,1.17-1.53.42-.54.82-1.04,1.21-1.48.39-.45.7-.68.94-.68.48,0,1.9.96,4.28,2.88,2.37,1.92,4.03,3.48,4.99,4.68.3.42.45.78.45,1.08s-.15.6-.45.9c-.48.3-1.11.45-1.89.45h-42.84c-1.02,0-1.74.48-2.16,1.44-1.02,2.4-2.25,4.89-3.69,7.47-.24.42-.36.78-.36,1.08,0,.36.15.65.45.85.3.21.69.32,1.17.32h18.99c1.26,0,1.89-.63,1.89-1.89-.12-3.12-.24-5.31-.36-6.57v-.18c0-.66.19-1.12.58-1.39s.91-.32,1.58-.13c7.08,1.68,10.62,2.88,10.62,3.6,0,.24-.21.48-.63.72l-.18.09c-.84.54-1.26,1.29-1.26,2.25v1.62c0,1.26.6,1.89,1.8,1.89h.36c.96,0,1.71-.39,2.25-1.17l1.62-2.43c.36-.48.76-1.05,1.21-1.71s.82-1.15,1.12-1.48c.3-.33.57-.5.81-.5.48,0,1.78.93,3.92,2.79,2.13,1.86,3.65,3.39,4.54,4.59.3.42.45.78.45,1.08s-.18.6-.54.9c-.42.3-.99.45-1.71.45h-13.95c-.6,0-1.07.17-1.4.5s-.5.8-.5,1.4v17.73c0,2.58-.27,4.65-.81,6.21s-1.64,2.86-3.28,3.92c-1.65,1.05-4.07,1.79-7.25,2.21h-.27c-1.08,0-1.71-.57-1.89-1.71-.3-2.46-.9-4.32-1.8-5.58-1.32-1.44-3.33-2.46-6.03-3.06-1.14-.3-1.71-.63-1.71-.99s.66-.54,1.98-.54c1.62.12,3.25.24,4.91.36,1.65.12,3.01.18,4.09.18.6,0,1.04-.12,1.31-.36s.4-.63.4-1.17v-17.19c0-.6-.17-1.06-.49-1.4-.33-.33-.8-.5-1.4-.5h-21.78c-1.02,0-1.77.42-2.25,1.26l-.45.63c-.3.42-.45.78-.45,1.08,0,.66.45,1.14,1.35,1.44,4.08,1.44,7.06,3.21,8.96,5.31,1.89,2.1,2.83,4.23,2.83,6.39,0,1.68-.51,3.08-1.53,4.18-1.02,1.11-2.28,1.67-3.78,1.67-1.2,0-2.4-.39-3.6-1.17-.66-.42-1.08-1.14-1.26-2.16-.6-3.54-1.92-7.26-3.96-11.16-.3-.66-.75-.99-1.35-.99-.48,0-.93.24-1.35.72-5.4,6.42-11.94,11.85-19.62,16.29-.96.54-1.59.66-1.89.36l-.09-.18c0-.42.39-.93,1.17-1.53,6.36-5.46,11.76-12.09,16.2-19.89.18-.36.27-.69.27-.99,0-.36-.15-.66-.45-.9s-.69-.36-1.17-.36h-3.24c-2.82.06-5.82.39-9,.99h-.54c-.78,0-1.38-.39-1.8-1.17l-.36-.63c-.18-.36-.27-.72-.27-1.08s.15-.64.45-.86c.3-.21.72-.28,1.26-.22,2.04.18,5.13.33,9.27.45h6.66c.96,0,1.71-.45,2.25-1.35.9-1.92,1.95-4.47,3.15-7.65.12-.36.18-.63.18-.81,0-.42-.15-.75-.45-.99s-.72-.36-1.26-.36h-7.38c-3.66.06-7.62.39-11.88.99h-.54c-.84,0-1.44-.39-1.8-1.17l-.36-.72c-.18-.36-.27-.72-.27-1.08s.15-.64.45-.85.72-.28,1.26-.22c2.04.18,5.13.33,9.27.45h12.87c1.14,0,1.83-.54,2.07-1.62.78-2.52,1.38-4.68,1.8-6.48.06-.18.09-.39.09-.63,0-.96-.57-1.44-1.71-1.44h-3.78c-2.82.06-5.82.39-9,.99h-.54c-.84,0-1.44-.39-1.8-1.17l-.36-.72c-.18-.36-.27-.72-.27-1.08s.15-.64.45-.85c.3-.21.72-.28,1.26-.22,2.04.18,5.13.33,9.27.45h5.76c1.14,0,1.83-.57,2.07-1.71l1.17-5.85.09-.54c0-.48-.17-.85-.49-1.12-.33-.27-.77-.4-1.31-.4h-8.73c-3.66.06-7.62.39-11.88.99h-.54c-.84,0-1.44-.39-1.8-1.17l-.36-.72c-.18-.36-.27-.72-.27-1.08s.15-.64.45-.85c.3-.21.72-.28,1.26-.23,2.04.18,5.13.33,9.27.45h13.14c1.2,0,1.89-.57,2.07-1.71.3-2.82.45-5.37.45-7.65v-.81c0-.66.18-1.15.54-1.49.36-.33.84-.43,1.44-.31l10.98,1.98c.48.12.87.31,1.17.58.3.27.45.56.45.85s-.18.54-.54.72l-.54.27c-.6.18-1.05.4-1.35.67-.3.27-.48.68-.54,1.22-.24,1.74-.45,2.94-.63,3.6l-.09.54c0,.48.16.85.49,1.12.33.27.77.41,1.31.41h15.48c.96,0,1.71-.39,2.25-1.17l1.71-2.34c.24-.3.61-.81,1.12-1.53.51-.72.93-1.24,1.26-1.58s.61-.5.85-.5c.48,0,1.87.92,4.19,2.75,2.31,1.83,3.94,3.35,4.9,4.54.36.36.54.72.54,1.08,0,.3-.18.6-.54.9-.48.3-1.11.45-1.89.45h-30.87c-1.14,0-1.8.57-1.98,1.71-.24,1.26-.72,3.21-1.44,5.85-.06.18-.09.39-.09.63,0,.96.57,1.44,1.71,1.44h13.86c.96,0,1.71-.39,2.25-1.17l1.71-2.25c.3-.36.69-.87,1.17-1.53.48-.66.87-1.14,1.17-1.44.3-.3.57-.45.81-.45.48,0,1.84.89,4.09,2.65,2.25,1.77,3.83,3.23,4.73,4.37.3.3.45.63.45.99s-.18.69-.54.99c-.42.3-.99.45-1.71.45h-29.25c-1.08,0-1.77.54-2.07,1.62-.54,1.86-1.26,3.99-2.16,6.39l-.18.81c0,.42.15.75.45.99.3.24.69.36,1.17.36h26.28c.96,0,1.71-.39,2.25-1.17l.04-.03Z"/>
    <path class="st0" d="M138.95,32.48c-3.66.06-7.62.39-11.88.99h-.54c-.84,0-1.44-.39-1.8-1.17l-.36-.72c-.18-.36-.27-.72-.27-1.08s.15-.64.45-.85c.3-.21.72-.28,1.26-.23,2.04.18,5.13.33,9.27.45h28.17c.96,0,1.71-.39,2.25-1.17l1.8-2.52c.3-.42.72-.99,1.26-1.71s.96-1.24,1.26-1.57c.3-.33.57-.5.81-.5.48,0,1.92.98,4.32,2.92,2.4,1.95,4.08,3.53,5.04,4.73.3.3.45.63.45.99s-.12.63-.36.81c-.42.42-1.08.63-1.98.63h-39.15,0ZM185.17,18.12c-.33-.33-.8-.5-1.4-.5h-42.12c-3.66.06-7.62.39-11.88.99h-.54c-.84,0-1.44-.39-1.8-1.17l-.36-.72c-.18-.36-.27-.72-.27-1.08s.15-.64.45-.85c.3-.21.72-.28,1.26-.23,2.04.18,5.13.33,9.27.45h45.54c.96,0,1.74-.36,2.34-1.08l1.35-1.8c.18-.24.5-.64.94-1.21.45-.57.82-.99,1.12-1.26.3-.27.57-.41.81-.41.48,0,1.83.87,4.05,2.61s3.84,3.18,4.86,4.32c.3.3.45.66.45,1.08,0,.48-.24.87-.72,1.17l-.9.54c-.54.24-.95.51-1.21.81-.27.3-.41.72-.41,1.26v59.22c0,2.58-.32,4.7-.95,6.35s-1.88,3.01-3.73,4.09c-1.86,1.08-4.62,1.86-8.28,2.34h-.27c-1.08,0-1.71-.57-1.89-1.71-.48-2.58-1.38-4.5-2.7-5.76-.96-.84-2.07-1.54-3.33-2.12-1.26-.57-2.94-1.06-5.04-1.49-1.2-.3-1.8-.63-1.8-.99s.66-.54,1.98-.54c7.38.54,11.82.81,13.32.81.9,0,1.51-.16,1.85-.5.33-.33.49-.88.49-1.67V19.52c0-.6-.17-1.06-.49-1.4h0ZM159.74,43.01l1.26-1.53c.24-.3.57-.7.99-1.21s.77-.88,1.04-1.12c.27-.24.52-.36.77-.36.48,0,1.77.78,3.87,2.34,2.1,1.56,3.66,2.91,4.68,4.05.3.42.45.75.45.99,0,.48-.27.9-.81,1.26-.12.12-.24.21-.36.27s-.24.12-.36.18c-.54.24-.94.51-1.21.81-.27.3-.41.72-.41,1.26v7.11c.18,7.02.36,12.18.54,15.48v.45c0,.84-.3,1.44-.9,1.8-.96.66-2.19,1.23-3.69,1.71-1.5.48-2.88.72-4.14.72-.96,0-1.59-.24-1.89-.72-.18-.3-.27-.6-.27-.9,0-.24.06-.66.18-1.26,0-.12.06-.78.18-1.98v-.54c0-.6-.17-1.06-.5-1.39s-.8-.5-1.4-.5h-14.85c-.6,0-1.07.17-1.4.5s-.49.8-.49,1.39v.72l.18,3.42v.72c0,.66-.18,1.17-.54,1.53-.78.72-1.91,1.37-3.38,1.93-1.47.57-2.96.86-4.46.86-.66,0-1.17-.18-1.53-.54s-.54-.78-.54-1.26c.3-3.36.51-7.89.63-13.59v-7.74c0-5.88-.27-11.16-.81-15.84v-.36c0-.96.39-1.44,1.17-1.44.36,0,.66.06.9.18l7.74,3.24c.66.3,1.41.45,2.25.45h14.76c.96,0,1.74-.36,2.34-1.08h.01ZM141.52,47.1c-.33.33-.49.8-.49,1.4v16.92c0,.6.16,1.07.49,1.39.33.33.79.5,1.4.5h14.85c.6,0,1.06-.16,1.4-.5s.5-.79.5-1.39v-16.92c0-.6-.17-1.06-.5-1.4-.33-.33-.8-.49-1.4-.49h-14.85c-.6,0-1.07.17-1.4.49Z"/>
  </g>
  <g>
    <path class="st0" d="M310.16,37.55c0-1.44-1.04-2.15-3.07-2.15-1,0-2.44.26-4.25.81-2.78.85-4.18,1.26-4.26,1.26l-.63-4.44c1.15-.04,2.89-.26,5.14-.67,2.26-.41,3.96-.63,5.07-.63,1.52,0,2.85.56,3.92,1.63s1.59,2.37,1.59,3.92c0,3.18-2.44,5.92-7.33,8.29-.81-1.15-1.63-2.4-2.48-3.7.52-.07,1.37-.19,2.48-.44.85-.22,1.7-.74,2.55-1.55.85-.78,1.26-1.55,1.26-2.33h0Z"/>
    <path class="st0" d="M341.24,25.75l.81,4.29c-.59.11-1.37-.15-2.44.15-1.11.63-2.41,1.89-3.37,3.07-1.11,1.37-1.7,2.59-1.7,3.66,0,1.33.92,3.33,2.33,4.29.26.19,2.63,1.33,2.63,1.33l-3.4,3.85c-3.55-3.55-5.14-6.48-5.33-9.14-.15-2.59,2.44-6.03,3.18-7.07-3.63.33-7.25,1-10.88,1.92v-5.11c3.07-.19,18.17-1.26,18.17-1.26v.02Z"/>
    <path class="st0" d="M359.92,41.25c.7,0,2.37-.19,5-.59.07,1.48.11,2.63.11,4.29-1,.11-2.37.26-4.03.41-5.25.19-8.84-1.44-10.8-5.77l1.7-1.55c1.96,2.41,4.62,3.22,8.03,3.22h-.01ZM360.92,34.08l-2.55-1.89c1.11-1.22,1.7-2.15,1.78-2.7-1.18,0-2.78-.19-4.7-.48-2.4-.37-3.96-.59-4.66-.67l.22-4.14c2.18.74,4.11.85,5.74,1.11,1.37.22,3.4.37,6.07.44l2.7,3.29c-1.04.93-2.55,2.63-4.59,5.03h-.01Z"/>
    <path class="st0" d="M381.53,38.74c0,1.07,1,1.85,2.96,2.41,1.37.37,2.78.55,4.22.55.3,0,.74-.07,1.33-.19.55-.11,1-.15,1.29-.15,0,.3-.41,1.67-.7,4.74-9.18-.63-13.73-2.96-13.73-6.92,0-2.22,1.22-4.33,3.74-6.29-.81-1.44-1.96-3.55-3.55-6.44-.11-.15-.63-.67-1.59-1.52l4.4-2.26c.55,1.52,1.85,4.18,3.92,7.99,1.48-.93,3.66-2.44,6.55-4.48l2.52,3.92c-2.26.81-4.51,1.96-6.77,3.44-3.07,1.96-4.59,3.7-4.59,5.18v.02Z"/>
    <path class="st0" d="M400.21,45.81c-.55-2.07-.85-4.81-.85-8.14,0-5.07,1.04-9.25,3.07-12.62l3.22,2.04c-1.85,2.59-2.78,6.11-2.78,10.47,0,1.33.07,2.37.19,3.07.44-.15,1.11-.44,2-.81.11.59.26,1.41.48,2.37-1,.74-2.48,1.92-5.33,3.63h0ZM408.02,28.97l10.88-1.44.81,3.48c-2,.19-4.03.37-6.03.52-1.74.22-3.48.74-5.22,1.48l-.44-4.03h0ZM420.38,40.07l-1.22,4.81c-2.85-.37-4.85-.67-6.07-.96-1.67-.41-2.41-.92-4.48-1.89l.52-3c2.22,1.04,3.51,1.48,6.14,1.67,2.11.11,3.81-.07,5.11-.63h0Z"/>
  </g>
  <g>
    <path class="st0" d="M219.81,61.05c-.18.54-.21.54-.56,2.4-.15.72-.21.99-.36,1.68,1.9-.21,3.18-.42,4.13-.72l.09,4.86c-.47.04-1.21.12-2.2.24-.8.09-2.44.24-3.18.3-1.07,3.54-1.84,5.61-3.24,8.7-.62,1.38-.89,1.92-2.05,4.26-.26.5-.45.89-.56,1.17l-4.84-2.67c2.11-2.85,4.16-7.11,5.49-11.34h-1.66c-.45,0-.91-.01-1.37-.03h-1.16v-4.8c1.13.21,2.49.3,4.33.3.33,0,.48,0,1.07-.03.02-.16.11-.58.27-1.26.24-1.02.42-2.49.45-3.57l5.34.51h0ZM232.58,86.34c-1.1-1.29-2.23-2.25-3.83-3.27-.09,1.41-.45,2.28-1.25,3.12-1.16,1.17-3.24,1.86-5.61,1.86s-4.39-.72-5.61-1.98c-.98-1.02-1.48-2.31-1.48-3.72,0-3.48,2.88-5.91,7.01-5.91.62,0,1.1.03,2.08.18-.09-1.14-.12-1.71-.12-2.4,0-1.23.06-2.19.18-3.54l4.9.21c-.24,1.05-.33,1.95-.33,3.39,0,1.08.06,1.98.24,3.48,1.81.81,3.21,1.62,4.57,2.67.09.06.56.45,1.46,1.17l-2.2,4.74h-.01ZM221.95,80.7c-1.4,0-2.29.6-2.29,1.53,0,.87.83,1.44,2.11,1.44,1.49,0,2.26-.66,2.26-1.92,0-.21-.03-.63-.06-.66-.8-.3-1.31-.39-2.02-.39ZM232.88,72.27c-2.79-1.77-5.7-3.12-9.23-4.32l2.46-4.14c3.74,1.35,6.18,2.43,8.94,4.05l-2.17,4.41h0Z"/>
    <path class="st0" d="M247.04,61.2c-.42,1.26-.77,3.21-1.22,6.42,1.93-3.51,4.34-5.19,7.51-5.19,2.02,0,4.01,1.02,5.38,2.73,1.66,2.1,2.46,4.83,2.46,8.34,0,4.92-1.51,8.58-4.54,10.98-1.69,1.35-4.07,2.46-6.77,3.12-1.01.27-1.78.42-3.5.69-.71-2.25-1.1-3.09-2.38-5.13,8.52-.51,11.97-3.33,11.97-9.81,0-3.75-1.19-5.82-3.3-5.82-1.1,0-2.11.54-3.21,1.74-1.78,1.89-2.94,4.38-3.3,6.96-.09.69-.12,1.05-.12,2.46l-4.99.06c.03-.21.03-.39.03-.51v-.6c-.06-1.17-.09-2.97-.09-3.81,0-3.63.21-7.08.68-10.95.09-.87.12-1.2.12-1.65v-.24l5.26.21h.01Z"/>
    <path class="st0" d="M268.68,63.66c1.75.42,4.81.63,8.55.63.36,0,.74,0,1.63-.03-.03-1.98-.06-2.52-.18-3.27h5.23c-.15.81-.15,1.02-.24,3.12,3.95-.24,6.71-.57,8.43-1.05l.15,4.59c-.86.06-1.04.06-2.61.27-1.99.27-3.65.42-5.97.51v1.89c3.36-.18,5.61-.45,7.66-.9l.12,4.59c-.41.02-1.05.07-1.9.15-1.34.15-4.19.36-5.82.42.02.92.05,1.8.09,2.64,1.54.42,2.49.78,4.07,1.62,1.51.81,1.87,1.02,3.98,2.49.45.3.65.42,1.13.72l-2.82,4.83c-.59-.64-1.27-1.28-2.02-1.92-1.4-1.2-2.85-2.13-4.22-2.67,0,1.35-.21,2.25-.71,3.03-.98,1.53-3.24,2.37-6.47,2.37-4.87,0-7.63-2.01-7.63-5.49,0-2.19,1.37-3.99,3.74-4.89,1.4-.54,3.18-.81,5.29-.81h.92c-.03-1.02-.06-1.62-.06-1.77-.62,0-1.84.03-2.29.03-1.72,0-3.09-.03-4.78-.12-1.31-.06-1.46-.09-2.35-.09l.06-4.47c1.31.27,4.28.48,7.3.48.62,0,1.07,0,1.99-.03v-.45s0-.3-.03-.78v-.72c-.68.03-.98.03-1.25.03-1.6,0-2.11-.03-5.52-.18-.75-.02-1.5-.05-2.23-.09-.42-.03-.71-.03-.8-.03h-.5l.06-4.65h0ZM277.26,80.76c-1.81,0-2.85.51-2.85,1.44,0,.75.83,1.2,2.32,1.2,1.66,0,2.38-.57,2.38-1.92,0-.18-.03-.51-.03-.51-.71-.18-1.13-.21-1.81-.21h-.01Z"/>
    <path class="st0" d="M306.69,61.53c-.21,1.26-.27,2.58-.3,5.43,3.06-.12,4.25-.18,7.54-.33v-.33c0-1.83-.12-4.11-.24-5.13h5.11c-.09.66-.15,1.56-.15,2.82v2.46c2.93-.12,4.72-.22,5.38-.3l.03,5.1c-1.01-.06-1.54-.09-2.49-.09-.39,0-.47,0-2.91.03,0,4.47-.33,6.18-1.46,7.47-.74.81-1.93,1.23-3.59,1.23-1.28,0-2.85-.33-4.51-.93v-.75c0-1.5-.09-2.61-.36-4.14,1.48.72,3,1.17,4.01,1.17.95,0,1.13-.57,1.19-3.96-2.73.09-5.26.21-7.6.33,0,6.51.03,7.95.24,8.82.39,1.56,1.51,1.98,5.34,1.98,3.62,0,7.16-.51,9.29-1.35l.33,5.52c-.83.06-1.81.16-2.94.3-2.76.3-4.69.42-6.92.42-2.85,0-4.99-.27-6.27-.75-2.23-.87-3.27-2.28-3.71-4.98-.18-1.17-.27-3.63-.27-7.89v-1.83c-2.64.15-3.53.21-5.05.45l-.3-5.01c.5.06.65.06,1.01.06.45,0,1.87-.06,4.34-.18v-.9c0-2.61-.03-3.45-.24-4.74h5.5Z"/>
    <path class="st0" d="M340.3,61.95c-.62,1.17-1.07,2.22-4.51,11.19,1.19-.87,2.38-1.32,3.68-1.32,1.96,0,3.47,1.11,3.95,2.88.3,1.08.3,1.32.36,5.04,0,2.1.36,2.76,1.42,2.76,1.19,0,2.05-.78,2.76-2.43.68-1.62,1.1-3.48,1.22-5.55,1.72,1.5,2.58,2.04,4.72,3-.56,3.12-1.37,5.16-2.67,6.93-1.54,2.07-3.89,3.21-6.62,3.21-1.9,0-3.36-.51-4.33-1.56-1.01-1.05-1.43-2.34-1.43-4.47,0-.27,0-.84.03-2.13v-.51c0-1.47-.33-1.95-1.25-1.95-1.37,0-2.79,1.38-3.95,3.9-.89,1.89-1.9,4.92-2.32,6.9l-5.49-1.65c.53-1.05.59-1.2,2.38-6.42.24-.75,1.28-3.75,3.09-9.03,2.4-6.99,2.97-8.82,3.18-10.02l5.79,1.23h-.01Z"/>
    <path class="st0" d="M355.91,67.68h.27c.95,0,3.8-.24,5.73-.48.47-3.15.68-4.92.68-5.94v-.51l5.38.51c-.12.4-.28,1.19-.48,2.37-.24,1.38-.45,2.52-.56,3.21.5-.03.86-.06,1.28-.06,1.84,0,3.21.39,4.22,1.2,1.51,1.23,2.11,3.06,2.11,6.45,0,4.68-.68,8.58-1.87,10.65-.42.75-1.16,1.41-1.9,1.8-.59.27-1.37.42-2.32.42-1.37,0-2.7-.24-4.72-.81.09-.84.09-1.2.09-1.74,0-1.32-.12-2.13-.45-3.57,1.69.66,3.21,1.08,4.07,1.08.62,0,1.01-.39,1.34-1.35.45-1.32.8-4.38.8-6.66,0-1.29-.18-2.01-.56-2.43-.33-.39-.74-.51-1.78-.51-.27,0-.56,0-1.19.06-.53,2.52-1.16,4.71-2.11,7.47-.95,2.79-1.42,3.99-3.15,7.74-.24.51-.3.66-.47,1.08l-4.9-2.61c1.9-2.55,4.39-8.52,5.58-13.26-2.11.27-3.62.57-4.63.84l-.45-4.95h0ZM377.94,64.47c2.97,3.75,4.87,7.77,6.06,12.81l-4.87,2.34c-.98-5.49-2.82-9.84-5.55-13.11l4.37-2.04h-.01Z"/>
    <path class="st0" d="M385.75,65.79c.45.06.59.06.95.06.71,0,2.35-.03,2.52-.06.59-.06.99-.09,1.19-.09.06-1.68.09-2.28.09-3.36,0-.3,0-.33-.06-1.56l5.14.12c-.21,1.02-.24,1.62-.36,4.35l1.66,1.59c-.39.27-1.16,1.08-1.84,1.89-.03.54-.03.9-.03,1.02.77-.75,1.1-.99,2.64-2.07,2.61-1.83,4.63-2.61,6.83-2.61,4.63,0,7.04,3.51,7.04,10.29,0,1.71-.09,3.06-.36,4.53.09.06.95.66,2.52,1.8l-1.84,5.1c-.8-.87-.98-1.05-2.32-2.22-.42.78-.77,1.14-1.48,1.62-1.16.84-2.94,1.32-4.72,1.32-3.92,0-6.5-2.13-6.5-5.31s2.55-5.31,6.33-5.31c1.22,0,2.05.15,3.33.63.12-.75.15-1.35.15-2.16,0-1.17-.15-2.46-.39-3.33-.36-1.23-1.25-1.95-2.49-1.95-2.02,0-5.26,2.01-8.73,5.37l.06,8.31c.03,2.64.06,2.79.18,4.08h-5.34c.15-.81.21-1.62.21-3.12.02-2,.03-3.22.03-3.66.03-.87.03-.9.03-1.11v-.42l-.18.21c-.12.12-.25.27-.39.45-.09.15-.36.48-.77.96-.59.66-1.37,1.62-1.69,2.1l-2.32-5.01c.65-.36,1.51-1.11,3.24-2.79.92-.93,1.37-1.35,2.14-2.04,0-.87,0-1.17.09-3.36-2.23.12-3.21.24-4.33.42l-.21-4.68h-.02ZM403.12,81.09c-.98,0-1.66.48-1.66,1.14s.74,1.14,1.78,1.14c.77,0,1.48-.27,1.93-.72.15-.18.45-.66.45-.72h-.03c-.92-.63-1.57-.84-2.46-.84h-.01Z"/>
    <path class="st0" d="M425.45,79.17c.06-.48.06-.51.06-1.38,0-2.07.36-3.27,1.31-4.44.71-.84.95-1.02,3.06-2.31,1.46-.87,1.93-1.5,1.93-2.49,0-1.41-1.04-2.25-2.82-2.25-1.34,0-2.32.48-2.88,1.41-.3.48-.42.9-.54,1.83l-6.12-.57c.3-2.16.77-3.33,1.9-4.59,1.72-1.98,4.36-3,7.78-3,5.46,0,8.88,2.61,8.88,6.75,0,1.83-.59,3.24-1.84,4.41-.71.66-1.01.87-3.59,2.49-1.25.81-1.69,1.59-1.69,2.97,0,.36.03.69.09,1.17h-5.53ZM431.21,81.21v5.67h-5.97v-5.67h5.97Z"/>
  </g>
  <g>
    <path class="st0" d="M11.39,18.64c-.44-.43-.67-.97-.67-1.62,0-.36.05-.67.14-.92.08-.26.18-.48.3-.65.11-.17.2-.25.26-.25s.09.05.09.14c0,.05-.02.16-.05.32-.04.17-.05.31-.05.43,0,.32.11.59.32.79.22.2.56.38,1.04.52.58.19,1.34.29,2.3.29,1.14,0,2.24-.12,3.31-.36.26-.06.49-.09.67-.09.4,0,.75.1,1.07.3.32.2.48.45.48.77,0,.5-.38.88-1.15,1.13-.35.11-.83.2-1.43.27-.61.07-1.25.11-1.94.11-2.33,0-3.89-.4-4.7-1.19h.01ZM13.75,11.48c0-.06.04-.13.11-.2.13-.13.41-.38.85-.74.61-.49.92-.78.92-.86,0-.04-.04-.07-.11-.09s-.14-.05-.21-.06c-.07-.02-.12-.03-.15-.05-.14-.02-.31-.06-.49-.11-.55-.16-1.01-.38-1.36-.67-.35-.29-.63-.6-.82-.91-.18-.28-.27-.47-.27-.58,0-.06.01-.09.04-.09s.08.02.16.07c.14.1.28.17.4.22.23.11.58.2,1.04.27.47.07.97.11,1.49.11.19,0,.52-.02.97-.07.46-.05.78-.07.97-.07.24,0,.45.02.63.07.34.1.62.28.84.56s.33.55.33.83c0,.25-.1.44-.31.56-.2.12-.51.2-.92.23-.55.06-1.16.21-1.84.44-.67.23-1.31.6-1.93,1.09-.12.08-.21.13-.27.13s-.09-.02-.09-.07h.02Z"/>
    <path class="st0" d="M24.42,33.01s-.02.1-.07.22c-.05.12-.09.23-.13.32-.59,1.32-1.19,2.24-1.79,2.77s-1.23.79-1.86.79-1.1-.12-1.5-.37-.7-.57-.9-.96c-.2-.4-.3-.82-.3-1.26,0-.52.05-1.07.14-1.67.1-.6.23-1.27.4-2.02.02-.11.07-.37.15-.77.08-.41.14-.76.18-1.06s.06-.55.06-.76c0-.36-.07-.65-.22-.86-.14-.22-.36-.32-.65-.32-.64,0-1.42.4-2.37,1.21-.94.8-1.8,1.74-2.56,2.81-.1.13-.15.29-.16.47v.38c0,1.04.06,2.02.18,2.93l.14,1.13c.08.49.13.9.13,1.22s-.08.61-.23.82c-.16.21-.36.31-.61.31-.36,0-.61-.1-.75-.31-.14-.21-.24-.49-.31-.85-.1-.56-.26-1.21-.49-1.94-.13.06-.25.18-.34.36-.14.24-.26.42-.34.54-.13.17-.29.31-.48.42-.19.11-.36.17-.51.17-.19,0-.36-.09-.5-.27s-.22-.41-.22-.7c0-.46.2-.98.61-1.57.12-.18.32-.46.61-.85.07-.11.11-.21.11-.31,0-.07-.02-.15-.05-.23-.3-.58-.53-1.08-.69-1.51s-.24-.84-.24-1.22c0-.49.17-.87.52-1.13.23-.18.58-.37,1.05-.57.47-.2.96-.37,1.47-.51.22-.05.33-.18.34-.4v-.83c0-.44-.04-.83-.13-1.16-.08-.33-.26-.63-.52-.89-.12-.12-.27-.24-.44-.35s-.26-.19-.26-.23c0-.06.1-.09.29-.09.24,0,.5.04.77.13.46.14.87.36,1.25.65s.57.62.57,1.01c0,.16-.08.52-.23,1.1.01-.04-.04.14-.14.54-.01.04-.02.08-.02.13,0,.12.08.24.23.36.19.13.29.34.29.61,0,.07,0,.13-.02.18-.02.12-.04.2-.04.23,0,.07.02.11.07.11s.13-.05.23-.16c.77-.78,1.54-1.41,2.33-1.89s1.5-.72,2.15-.72,1.11.2,1.43.59c.32.4.48.91.48,1.53,0,.4-.03.79-.09,1.19s-.16.97-.29,1.71c-.13.66-.23,1.22-.3,1.67-.07.45-.1.89-.1,1.31,0,.49.12.85.35,1.07s.52.33.85.33c.48,0,.95-.15,1.4-.44.46-.29.98-.86,1.57-1.7.1-.13.18-.25.25-.34.07-.1.13-.14.16-.14.05,0,.07.02.07.07l.02-.03ZM9.95,32.3c.06.14.14.22.25.22.1,0,.19-.05.27-.16.72-.94,1.19-1.61,1.42-2.02l.13-.22c.07-.17.11-.3.11-.4-.01-.16-.04-.23-.09-.23-.01-.01-.04-.02-.09-.02-.56,0-1.1.13-1.62.4-.52.26-.77.58-.77.94,0,.43.13.93.4,1.49h0ZM11.86,35.44c.01-.1.02-.19.03-.28v-.71l.02-.68v-.04c0-.11-.02-.19-.05-.24-.04-.05-.08-.08-.13-.08-.08,0-.16.06-.23.18l-.29.59c-.04.08-.05.16-.05.23s.03.17.09.29l.16.31s.07.11.13.23.12.21.16.26.07.08.1.08.04-.05.05-.14h0Z"/>
    <path class="st0" d="M12.99,47.14s-.02.11-.05.23c-.31.85-.64,1.88-.98,3.09s-.51,2.05-.51,2.53c0,.3.07.75.22,1.35.1.46.14.75.14.88,0,.22-.05.4-.15.55-.1.15-.25.23-.44.23-.24,0-.47-.09-.7-.26s-.42-.38-.58-.6c-.29-.42-.5-.88-.65-1.39-.14-.51-.22-1.2-.22-2.06,0-1.36.2-2.87.61-4.54.01-.04.09-.31.23-.83.12-.35.21-.65.26-.91s.08-.54.08-.84c0-.62-.19-1.25-.56-1.89-.02-.04-.05-.07-.07-.11-.02-.04-.04-.07-.04-.11s.02-.07.05-.09.06-.04.08-.04c.11,0,.25.05.41.16,1.33.76,2,1.64,2,2.66,0,.23-.05.46-.16.68-.11.23-.28.53-.52.9-.24.38-.38.62-.43.72-.26.53-.46,1.04-.58,1.55-.12.5-.18,1.04-.18,1.6,0,.25.03.5.08.75s.12.37.21.37c.11,0,.25-.17.42-.52.17-.35.45-.95.82-1.8.38-.91.71-1.64.97-2.18.05-.12.11-.18.18-.18.04,0,.05.03.05.09h0ZM22.48,53.94c.13.24.19.48.19.72s-.06.46-.19.64c-.13.17-.31.26-.57.26-.23,0-.44-.07-.64-.22-.2-.15-.39-.32-.57-.52s-.31-.34-.4-.42c-.18-.18-.36-.34-.54-.49-.17.04-.27.14-.31.32-.26,1.24-1.09,1.85-2.48,1.85-.65,0-1.21-.1-1.68-.31-.47-.2-.83-.48-1.08-.82s-.37-.72-.37-1.12c0-.65.31-1.16.95-1.52.63-.37,1.4-.55,2.31-.55.16,0,.27,0,.34.02.26,0,.4-.13.4-.38,0-.36-.01-1.03-.04-2.02l-.02-1.28c0-.24-.08-.36-.23-.36l-.32.02c-.32,0-.56-.02-.7-.05-.6-.14-1.06-.39-1.4-.73-.33-.34-.6-.81-.8-1.41-.04-.14-.05-.21-.05-.2,0-.08.02-.13.07-.13.04,0,.09.03.15.08.07.05.12.09.15.12.26.24.57.44.92.61.35.17.7.25,1.04.25.18,0,.45-.03.81-.09.23-.04.34-.18.34-.43l-.02-.81c0-.41,0-.67-.02-.79-.01-.23-.07-.45-.17-.67-.1-.22-.23-.4-.37-.54-.06-.06-.11-.12-.15-.18-.04-.06-.1-.13-.17-.2-.12-.17-.13-.28-.04-.34.22-.13.46-.2.74-.2.25,0,.55.08.89.24s.6.35.77.55c.06.07.11.14.15.22.04.07.06.16.06.25,0,.08-.01.19-.04.32-.02.13-.04.24-.05.32.02.18.09.31.2.4.36.26.65.42.88.47.16.04.37.07.63.09.24.02.41.06.52.1.11.04.19.14.23.3.02.12.04.21.04.27,0,.43-.34.82-1.01,1.15-.54.24-1,.42-1.37.54-.22.07-.32.22-.32.43v.22c0,.73.03,1.37.08,1.9.05.53.13,1.19.23,1.95.01.19.16.34.43.43.73.26,1.39.62,1.98,1.06.28.2.48.43.6.67h.02ZM17.53,52.9c-.29-.04-.58-.05-.88-.05-1.24,0-1.85.29-1.85.88,0,.36.18.63.55.82s.75.28,1.16.28c.49,0,.84-.14,1.05-.42s.31-.73.31-1.34c0-.07-.11-.13-.34-.16h0ZM19.49,44.81c-.06,0-.11.03-.15.09s-.07.14-.08.23v.18c0,.1.02.17.06.23s.1.09.17.09c.04,0,.09,0,.16-.04.22-.12.32-.22.32-.29,0-.06-.1-.2-.29-.41-.06-.06-.13-.09-.2-.09h.01Z"/>
    <path class="st0" d="M19.29,68.21c.76.89,1.13,1.88,1.13,2.94,0,.77-.22,1.43-.65,1.98s-.98.97-1.65,1.25-1.34.42-2.02.42c-1.12,0-1.97-.38-2.56-1.14-.59-.76-.89-1.84-.89-3.23v-.45c0-.22-.09-.37-.27-.45-.76-.4-1.13-.91-1.13-1.53,0-.34.15-.7.45-1.1s.67-.78,1.12-1.15c.16-.12.24-.26.25-.43l.07-.36c.07-.4.13-.7.18-.92v-.11c0-.16-.08-.28-.23-.36-.6-.32-1.16-.76-1.69-1.31-.01,0-.05-.05-.11-.12-.06-.07-.09-.12-.09-.17s.03-.07.09-.07c.05,0,.13.03.25.09.47.22,1.03.4,1.67.54h.09c.19,0,.31-.11.34-.32.08-.53.13-.94.13-1.24,0-.42-.05-.77-.16-1.04-.11-.24-.24-.43-.4-.58-.16-.14-.27-.24-.31-.29-.04-.04-.05-.07-.05-.11,0-.08.11-.13.32-.13s.47.04.76.13.54.2.76.34c.56.38.85.86.85,1.42,0,.37-.11.79-.32,1.26-.07.17-.13.29-.18.38-.04.07-.05.14-.05.2,0,.14.1.23.29.27l.59.16c.32.12.56.28.69.49.14.2.21.43.21.67,0,.29-.08.5-.24.64s-.42.23-.77.28c-.53.06-1.07.21-1.64.45-.17.06-.28.19-.34.38-.19.94-.32,1.61-.38,2.02v.11c0,.19.03.29.09.29h.14c.18.01.38.01.6,0s.39,0,.5,0c.11-.01.25-.02.43-.02.36,0,.68.09.95.26.27.17.41.42.41.73s-.15.52-.46.66-.64.21-1,.21c-.44,0-.91-.05-1.39-.14-.04-.01-.08-.02-.13-.02-.1,0-.17.03-.23.09-.05.06-.08.14-.06.25.06.96.31,1.74.75,2.33.44.59,1.06.89,1.88.89.74,0,1.35-.27,1.81-.81s.69-1.24.69-2.11c0-1.55-.79-2.99-2.38-4.32-.02-.02-.06-.06-.12-.1-.05-.04-.08-.08-.08-.12s.02-.05.07-.05c.07,0,.17.03.31.09,1.32.5,2.36,1.2,3.11,2.1v-.02ZM12.32,68.11c.07.02.12.04.14.04.17,0,.26-.11.29-.34l.11-1.06c.01-.08,0-.15-.04-.21-.04-.05-.1-.08-.17-.08-.14,0-.28.07-.41.22-.29.31-.43.59-.43.85,0,.28.17.47.52.59h-.01ZM14.61,64.17l-.14-.04c-.16,0-.26.1-.32.29l-.05.16c.06.02.13.04.22.04.2,0,.35-.08.43-.23l.02-.07c0-.06-.05-.11-.14-.14h-.02Z"/>
    <path class="st0" d="M11.98,92.95c-.07,0-.11-.02-.11-.07,0-.07.08-.14.25-.22,2.05-.8,3.52-1.9,4.41-3.28s1.33-2.93,1.33-4.66c0-.62-.11-1.18-.32-1.66-.22-.48-.57-.72-1.06-.72-.3,0-.58.08-.84.25s-.58.43-.96.77c-.36.32-.65.56-.88.71-.23.15-.47.22-.72.22-.28,0-.56-.08-.84-.24-.28-.16-.51-.38-.69-.66-.18-.28-.27-.57-.27-.88,0-.2.03-.4.09-.58.06-.19.12-.28.18-.28.05,0,.1.03.17.1s.1.11.12.12c.13.13.27.22.41.28.14.05.31.08.51.08.25,0,.67-.08,1.24-.25l.41-.11c.41-.11.84-.2,1.31-.26.46-.07.87-.1,1.23-.1.72,0,1.4.25,2.02.75.63.5.94,1.44.94,2.83,0,1.13-.29,2.24-.88,3.32s-1.46,2.03-2.63,2.84c-1.16.81-2.57,1.37-4.21,1.67l-.22.02h0ZM12.75,80.37s-.03-.02-.03-.04c0-.06.07-.13.2-.2l1.55-.81c.16-.08.23-.16.23-.23,0-.05-.03-.09-.09-.13s-.12-.08-.19-.11-.12-.05-.15-.06c-.36-.17-.7-.38-1.02-.63s-.63-.59-.94-1.03c-.07-.11-.11-.19-.11-.23s.02-.07.05-.07c.05,0,.14.05.27.16.38.23.75.38,1.1.47.26.06.6.1,1.02.13s.75.04,1.02.04c.16,0,.35.02.58.04.23.03.43.08.6.13.35.12.67.3.95.55.29.25.43.48.43.71,0,.19-.1.35-.3.48-.2.13-.43.19-.69.19l-.74-.04-.63-.02c-.46,0-.89.04-1.29.14-.4.09-.93.26-1.59.51-.07.04-.13.05-.18.05-.02,0-.04,0-.06-.02v.02Z"/>
  </g>
  <g>
    <path class="st0" d="M231.39,31.62c.33.28.7.5,1.1.65.19-.35.41-.7.65-1.09.52-.87,3.03-4.64,9.05-6.91,1.74-.66,3.92-1.5,6.1-2.34,6.44-2.49,9.18-3.53,10.26-3.78,1.6-.37,3.27-.56,4.95-.56h.34l-.07-.07-6.03-5.24c-.96-.84-1.93-1.02-3.6-1.21,0,0-2.64-.48-5.91.28-1.29.3-10.1,3.81-15.15,5.71-5.05,1.91-6.81,5.11-6.81,5.11-.87,1.36-1.05,1.87-1.09,2.79s.16,1.4.89,2.04l5.33,4.62h-.01Z"/>
    <path class="st0" d="M258.83,19.91c-1.4.33-10.99,4.14-16.49,6.21s-7.41,5.56-7.41,5.56c-.95,1.48-1.14,2.03-1.18,3.04-.04,1,.17,1.52.97,2.21l5.79,5.03c1.43,1.24,3.66,1.31,5.19.17,0,0,.03-.05.08-.12.44.36.86.71,1.24,1.03.52.43.98.79,1.34,1.08.18.14.34.26.48.36.14.1.24.18.38.25.33.18.79.46,1.37.7s1.29.43,2.12.43c.65,0,1.36-.12,2.09-.4h0l12.01-4.92c.79-.3,1.43-.58,1.96-.9.4-.24.75-.5,1.04-.81.44-.46.69-1.02.81-1.58.12-.57.14-1.16.14-1.84,0-.43,0-.9-.01-1.42l-.02-4.24c1.46-.26,3.74-.09,3.74-.09.77-.04,1.45-.49,1.72-1.14.27-.66.08-1.4-.48-1.89l-6.56-5.7c-1.05-.91-2.1-1.12-3.92-1.32,0,0-2.88-.52-6.42.31h.02ZM268.69,30.41l.02,3.58v1.41c0,.58-.02,1.03-.08,1.37-.05.25-.11.43-.19.58-.12.22-.28.4-.66.65-.38.24-.96.52-1.79.83h-.01l-11.99,4.92c-.5.19-.91.25-1.27.25-.47,0-.87-.11-1.27-.27-.4-.16-.76-.38-1.13-.58,0,0-.1-.07-.22-.15-.44-.33-1.33-1.04-2.37-1.9-.22-.18-.46-.39-.7-.58,1.29-1.35,3.51-3.23,6.75-4.45,4.45-1.68,11.61-4.44,14.9-5.65h.01Z"/>
    <path class="st0" d="M278.05,25.93c.65.99.79,2.2.33,3.31-.07.16-.15.32-.24.47,3.38,2.04,5.36,4.44,5.36,6.99,0,7.09-15.3,13.08-33.41,13.08s-33.41-5.99-33.41-13.08c0-3.09,2.91-5.98,7.7-8.25-.97-.86-1.44-1.73-1.53-2.87-6.16,2.88-9.88,6.78-9.88,11.12,0,9.1,16.3,16.22,37.12,16.22s37.12-7.12,37.12-16.22c0-4.17-3.44-7.93-9.17-10.78h.01Z"/>
  </g>
</svg>